<svg width="512" height="512" viewBox="0 0 512 512" fill="none" xmlns="http://www.w3.org/2000/svg">
<g clip-path="url(#clip0)">
<path d="M232.484 390.324C228.582 394.223 228.582 400.555 232.484 404.461C236.395 408.363 242.723 408.363 246.621 404.461C250.531 400.555 250.531 394.223 246.621 390.324C242.723 386.414 236.395 386.414 232.484 390.324V390.324Z" fill="#ED1B24"/>
<path d="M488.918 372.957L412.996 308.398C412.645 308.102 412.273 307.828 411.887 307.582C391.969 294.902 366.395 297.711 349.695 314.406L308.301 355.797C305.434 358.668 301.156 359.516 297.406 357.969C250.664 338.633 212.266 309.523 183.277 271.457C161.172 242.43 153.203 219.363 152.152 216.113C152.027 215.418 151.828 214.727 151.547 214.051C149.996 210.301 150.844 206.031 153.719 203.164L195.109 161.762C211.809 145.063 214.613 119.488 201.934 99.5703C201.832 99.4102 201.727 99.2539 201.617 99.0977L146.789 22.9062C129.539 -3.85547 91.9648 -7.89844 69.4141 14.6484L61.125 22.9375C61.1211 22.9453 61.1133 22.9531 61.1055 22.957L31.5117 52.5508C-3.77734 87.8438 -9.55078 140.875 14.8203 205.922C35.6953 261.641 77.4844 322.621 132.488 377.625C188.793 433.93 251.422 476.492 308.836 497.473C365.664 518.234 426.113 520.793 468.898 478.004L496.809 450.098C519.258 427.645 515.34 390.316 488.918 372.957V372.957ZM400.605 324.109L476.461 388.613C476.809 388.91 477.18 389.184 477.566 389.43C493.77 399.746 496.223 422.402 482.664 435.957L480.594 438.031L351.215 341.164L363.836 328.547C373.699 318.68 388.73 316.895 400.605 324.109V324.109ZM130.082 33.8945C130.184 34.0547 130.289 34.2148 130.398 34.3672L185.203 110.531C192.648 122.449 190.926 137.664 180.969 147.621L168.738 159.855L81.207 31.1367L83.5547 28.7891C97.168 15.1758 119.805 17.75 130.082 33.8945ZM315.695 478.687C260.961 458.687 200.918 417.773 146.629 363.484C93.5977 310.457 53.4375 252.008 33.543 198.906C18.6094 159.047 8.58985 103.754 45.6523 66.6953L66.8125 45.5312L154.344 174.25L139.582 189.02C131.184 197.402 128.543 209.809 132.734 220.855C135.891 233.809 150.414 260.695 165.066 280.508C186.629 309.664 225.766 349.973 289.762 376.449C301.008 381.102 313.832 378.547 322.441 369.941L336.93 355.449L466.309 452.316L454.758 463.863C415.027 503.598 357.207 493.855 315.695 478.687Z" fill="#ED1B24"/>
<path d="M213.719 366.449C203.156 357.187 184.887 341.258 175.266 331.359C151.672 307.113 126.918 277.723 112.199 256.488C109.055 251.949 102.824 250.816 98.2852 253.965C93.7461 257.109 92.6172 263.34 95.7617 267.879C114.324 294.66 141.598 325.434 160.93 345.301C171.086 355.754 189.512 371.824 200.531 381.484C204.676 385.117 210.992 384.719 214.645 380.559C218.285 376.41 217.871 370.09 213.719 366.449Z" fill="#ED1B24"/>
</g>
<defs>
<clipPath id="clip0">
<rect width="512" height="512" fill="white"/>
</clipPath>
</defs>
</svg>
